<svg width="1639" height="1051" viewBox="0 0 1639 1051" fill="none" xmlns="http://www.w3.org/2000/svg">
<g clip-path="url(#clip0_494_5)">
<path fill-rule="evenodd" clip-rule="evenodd" d="M44.6561 803.291H95.5998V601.461L175.15 777.431C184.166 798.589 197.1 806.425 222.175 806.425C247.26 806.425 259.411 798.589 268.814 777.431L347.977 601.461V803.291H399.317V601.461C399.317 581.871 391.481 572.468 375.016 567.379C336.223 555.625 310.354 565.811 298.6 592.067L220.608 766.074L145.363 592.067C133.997 565.811 107.732 555.625 68.5423 567.379C52.4738 572.477 44.6377 581.871 44.6377 601.461V803.291H44.6561ZM441.65 639.093H492.981V749.987C492.594 756.274 494.944 770.37 522.758 770.766C537.259 771.163 633.274 770.766 634.058 770.766V638.3H685.398V819.765C685.398 864.44 630.14 874.23 604.281 874.626H442.821V840.526H604.677C637.598 836.995 633.68 820.539 633.68 815.045V801.723H525.118C474.562 801.345 442.037 778.999 441.65 753.518C441.65 751.176 442.821 639.867 441.65 639.093ZM1542.89 510.544C1511.55 509.761 1487.24 512.895 1466.86 521.515C1460.98 523.875 1451.57 523.875 1450.8 531.305C1453.93 534.458 1454.33 539.538 1457.07 543.852C1461.77 551.688 1469.99 562.271 1477.45 567.766C1485.68 574.035 1493.91 580.294 1502.53 585.789C1517.82 595.192 1535.05 600.677 1549.95 610.081C1558.58 615.575 1567.2 622.628 1575.82 628.5C1580.13 631.634 1582.89 636.733 1588.35 638.687V637.516C1585.61 633.985 1584.84 628.887 1582.08 624.969C1578.18 621.06 1574.25 617.53 1570.33 613.612C1558.97 598.327 1544.87 584.996 1529.58 574.035C1517.04 565.406 1489.61 553.652 1484.51 539.141L1483.72 538.367C1492.35 537.592 1502.53 534.458 1510.77 532.098C1524.09 528.567 1536.25 529.341 1549.95 525.829C1556.27 524.175 1562.54 522.342 1568.76 520.335V516.804C1561.7 509.751 1556.63 500.339 1549.17 493.683C1529.19 476.443 1507.24 459.591 1484.51 445.477C1472.36 437.641 1456.67 432.543 1443.75 425.887C1439.04 423.536 1431.22 422.356 1428.46 418.438C1421.4 409.809 1417.5 398.451 1412.4 388.265C1401.04 366.711 1390.05 342.806 1380.26 320.081C1373.2 304.797 1368.91 289.512 1360.28 275.407C1319.91 208.782 1276.01 168.421 1208.62 128.835C1194.11 120.603 1176.88 117.081 1158.46 112.767C1148.67 112.379 1138.87 111.596 1129.06 111.199C1122.79 108.452 1116.53 101.013 1111.03 97.4817C1088.71 83.3767 1031.09 52.8068 1014.63 93.1764C1004.05 118.648 1030.31 143.724 1039.32 156.667C1045.99 165.683 1054.61 175.87 1059.31 186.057C1062.05 192.713 1062.84 199.775 1065.58 206.827C1071.86 224.067 1077.73 243.269 1085.96 259.338C1090.28 267.571 1094.98 276.19 1100.47 283.63C1103.6 287.944 1109.08 289.899 1110.26 296.96C1104.77 304.797 1104.37 316.551 1101.24 326.35C1087.14 370.638 1092.61 425.5 1112.59 458.033C1118.88 467.833 1133.77 489.387 1153.76 481.154C1171.38 474.102 1167.45 451.764 1172.55 432.174C1173.74 427.463 1172.95 424.329 1175.31 421.204V421.987C1180.8 432.958 1186.27 443.541 1191.37 454.512C1203.52 473.715 1224.68 493.701 1242.32 507.023C1251.72 514.075 1259.17 526.225 1270.94 530.54V529.351H1270.14C1267.78 525.838 1264.27 524.253 1261.14 521.515C1254.08 514.462 1246.23 505.833 1240.75 498.006C1224.28 476.056 1209.79 451.755 1196.85 426.68C1190.58 414.538 1185.1 401.208 1180 389.057C1177.64 384.356 1177.64 377.303 1173.73 374.952C1167.84 383.572 1159.22 391.021 1154.92 401.595C1147.48 418.447 1146.68 439.217 1143.96 460.771C1142.37 461.158 1143.16 460.771 1142.37 461.555C1129.84 458.42 1125.54 445.486 1120.82 434.516C1109.06 406.684 1107.12 362.009 1117.3 329.881C1120.04 321.649 1131.8 295.78 1127.09 287.944C1124.73 280.495 1116.91 276.19 1112.58 270.309C1107.49 262.86 1102.02 253.456 1098.49 245.224C1089.08 223.283 1084.37 198.982 1074.18 177.032C1069.48 166.845 1061.25 156.261 1054.59 146.858C1047.15 136.275 1038.91 128.826 1033.03 116.288C1031.07 111.974 1028.33 104.921 1031.47 100.22C1032.26 97.0853 1033.81 95.9052 1036.96 95.1308C1042.06 90.8164 1056.55 96.3016 1061.65 98.6525C1076.14 104.534 1088.3 110.01 1100.45 118.243C1105.93 122.161 1111.81 129.61 1118.87 131.573H1127.1C1139.63 134.311 1153.76 132.357 1165.51 135.878C1186.27 142.534 1205.09 152.343 1221.94 162.917C1273.27 195.442 1315.6 241.693 1344.22 296.951C1348.92 305.967 1350.88 314.191 1355.18 323.603C1363.41 342.806 1373.6 362.396 1381.83 381.212C1390.06 399.631 1397.89 418.438 1409.65 433.723C1415.54 441.955 1439.05 446.261 1449.63 450.575C1457.48 454.097 1469.63 457.24 1476.68 461.546C1490 469.778 1503.33 479.181 1515.87 488.198C1522.12 492.908 1541.71 502.708 1542.89 510.544Z" fill="white"/>
<path fill-rule="evenodd" clip-rule="evenodd" d="M1143.15 169.979C1136.49 169.979 1131.8 170.763 1127.09 171.933V172.717H1127.87C1131 178.986 1136.5 183.291 1140.4 188.786C1143.55 195.054 1146.29 201.323 1149.42 207.601L1150.22 206.818C1155.71 202.89 1158.45 196.631 1158.45 187.218C1156.09 184.471 1155.71 181.733 1153.75 178.986C1151.38 175.077 1146.28 173.123 1143.15 169.979ZM724.606 803.29H871.952C889.2 803.29 905.656 799.778 918.987 793.5C941.333 783.313 951.917 769.604 951.917 751.563V713.95C951.917 699.458 939.766 685.731 915.456 676.318C902.927 671.617 887.237 668.879 871.952 668.879H810.038C789.267 668.879 779.468 662.61 776.72 648.892C776.333 647.325 776.333 645.758 776.333 644.19V621.069C776.333 619.88 776.333 618.313 776.72 616.746C779.468 606.162 784.953 603.424 802.985 601.461H953.862V567.379H810.425C789.655 567.379 778.684 568.549 768.884 571.684C738.711 581.087 725.38 595.994 725.38 622.24V652.017C725.38 675.138 751.249 694.728 795.14 699.449C799.841 699.827 804.94 699.827 810.038 699.827H862.945C864.908 699.827 866.854 699.827 868.439 700.223C884.499 701.79 891.56 704.547 896.262 710.41C899.396 713.544 900.171 716.301 900.171 719.813V749.609C900.171 753.121 897.829 757.841 893.128 761.741C888.426 765.668 880.977 768.406 871.177 768.802C869.214 768.802 868.043 769.199 866.079 769.199H724.606V803.29ZM1270.92 744.123C1270.92 778.999 1297.17 798.589 1349.68 802.516C1354.77 802.912 1359.48 803.29 1364.56 803.29H1497.82V769.208H1363.39C1333.62 769.208 1322.25 761.75 1322.25 743.727V567.379H1270.92V744.123ZM984.432 745.681V624.195C984.432 593.228 1006.38 574.413 1049.09 568.54C1053.79 568.144 1058.51 567.766 1062.81 567.766H1160.01C1165.1 567.766 1169.41 568.144 1174.5 568.54C1217.23 574.413 1238.78 593.228 1238.78 624.195V745.681C1238.78 770.766 1229.76 784.087 1208.61 793.113L1258.77 838.562H1199.58L1158.83 801.723L1117.67 804.083H1062.81C1052.76 804.036 1042.75 802.716 1033.03 800.156C1000.49 791.149 984.432 773.901 984.432 745.681ZM1039.69 742.953C1039.69 744.52 1040.46 746.087 1040.86 748.051C1043.62 762.146 1056.94 769.982 1077.3 769.982H1123.56L1081.23 731.576H1140.4L1177.63 765.281C1184.69 761.354 1189.01 755.878 1190.58 748.825C1190.95 747.258 1190.95 745.294 1190.95 743.727V627.338C1190.95 625.771 1190.95 624.204 1190.58 622.637C1187.82 609.315 1174.5 601.857 1154.51 601.857H1077.3C1054.58 601.857 1039.69 611.648 1039.69 627.338V742.953ZM1521.34 803.678H1528.78V775.062H1538.57V769.19H1511.14V775.062H1521.33V803.678H1521.34ZM1578.17 803.678H1585.21V769.199H1574.64L1566.02 792.716L1556.61 769.199H1546.41V803.678H1553.09V777.422H1553.47L1563.26 803.678H1568.36L1578.17 777.422V803.678Z" fill="white"/>
</g>
<defs>
<clipPath id="clip0_494_5">
<rect width="1639" height="1051" fill="white"/>
</clipPath>
</defs>
</svg>
